<svg xmlns="http://www.w3.org/2000/svg" width="291" height="177" xmlns:xlink="http://www.w3.org/1999/xlink"><defs><path id="a" d="M60.08.2s-10.21 8.3-16.5 8.3c-6.3 0-11.77-1.16-16.1-1.75-4.32-.6-15.73-1.05-22.73 7.67-7 8.7-4.64 20.93-.12 25.39 4.53 4.45 15.54 11.3 20.9 5.25 5.35-6.05-.06-9.61-3.64-10.78s-7.34-5.86-5.4-11.83c1.96-5.97 8.55-10.12 19.74-9.78 11.19.35 18.6-1.67 22.45-5.5C62.53 3.33 60.08.2 60.08.2z"/><linearGradient id="b" x1="95.019%" x2="7.054%" y1="22.239%" y2="50%"><stop stop-color="#7CDCFF" offset="0%"/><stop stop-color="#FFF" offset="100%"/></linearGradient><path id="d" d="M38.34 81.37c-.44 5.69-5.27 11.38-14.06 10.5-8.79-.87-4.36-16.69-2.64-25.39 1.73-8.7 18.19-55.38 19.5-58.44C42.46 4.97 42.9 1.47 39.4.59c-3.52-.87-11.6.75-14.94 5.26-3.35 4.5-14.67 28.67-23.02 67.2-3.48 16.07 1.6 23.23 8.7 26.11 9.93 4.04 18.54 1.91 23.82-.28C39.22 96.7 46 89.81 49.09 78c3.07-11.82-10.31-2.31-10.75 3.38z"/><linearGradient id="e" x1="72.979%" x2="19.65%" y1="15.909%" y2="71.388%"><stop stop-color="#85E0FF" offset="0%"/><stop stop-color="#FFF" offset="100%"/></linearGradient><path id="g" d="M39.7 76.18c-.43 5.69-8.3 14.6-16.03 13.02-7.72-1.56-3.8-14.16-2.12-22.7 1.68-8.53 16.7-57.35 18.01-60.42 1.32-3.06.24-4.88-3.27-5.76-3.52-.87-11.8 1.3-14.74 7.08C18.6 13.17 9.57 34.48 1.22 73-2.26 89.09 2.7 94.06 9.8 96.95c9.93 4.03 17.34 1.97 22.6-.22 5.28-2.2 14.57-12.86 17.65-24.68 3.08-11.82-9.91-1.56-10.35 4.14z"/><linearGradient id="h" x1="62.173%" x2="0%" y1="42.128%" y2="50%"><stop stop-color="#85E0FF" offset="0%"/><stop stop-color="#FFF" offset="100%"/></linearGradient><path id="j" d="M33 70.5c-.43 5.69-7.41 16.23-11.61 15.56-4.2-.68-2.67-9.48-.88-17.95 1.8-8.48 17.2-56.46 18.02-60.43.82-3.96.95-6.52-2.56-7.4C32.45-.59 24.22.9 20.5 9 16.81 17.1 1.08 72.7.36 81.97c-.72 9.26 2.84 15.88 14.06 15.3 10.04-.53 13.27-5.7 17.08-10.34C35.3 82.3 33.45 64.8 33 70.5z"/><linearGradient id="k" x1="50%" x2="7.737%" y1="8.598%" y2="44.209%"><stop stop-color="#85E0FF" offset="0%"/><stop stop-color="#FFF" offset="100%"/></linearGradient><path id="m" d="M42.64 8.07S36.48.19 31.65.19 13.2 4.13 5.29 27.77c-7.91 23.65-6.44 40.28 4.92 41.6 11.36 1.3 27.34-16.2 27.34-16.2l-6.34-2.63s-6.59 6.13-9.67 5.25c-3.07-.87-.17-16.71 2.64-25.39s10.2-22.68 14.6-15.67c4.39 7 3.86-6.66 3.86-6.66z"/><linearGradient id="n" x1="72.486%" x2="21.311%" y1="20.048%" y2="59.141%"><stop stop-color="#85E0FF" offset="0%"/><stop stop-color="#FFF" offset="100%"/></linearGradient><linearGradient id="p" x1="56.035%" x2="11.818%" y1="35.265%" y2="50%"><stop stop-color="#85E0FF" offset="0%"/><stop stop-color="#FFF" offset="100%"/></linearGradient><path id="q" d="M29.43 38.95c6.85-.35 21-5.54 20.74-17.16C49.9 10.17 34.4-1.84 3.65 24.1c-5.72-5.7-2.2-13.65-2.2-13.65S14.36.74 31.51.19C48.66-.37 55.58 13.64 56 21.49c.4 7.84-7.11 21.58-26.28 22.92-16.7-6.13-7.14-5.1-.3-5.46z"/><linearGradient id="r" x1="84.303%" x2="22.127%" y1="18.73%" y2="80.542%"><stop stop-color="#85E0FF" offset="0%"/><stop stop-color="#D0F3FF" offset="60.979%"/><stop stop-color="#FFF" offset="100%"/></linearGradient><path id="t" d="M95.86.08s1.82 4.1 3.07 6.17a91.68 91.68 0 0 0 4.82 6.53C91.9 22.4 65.3 43.2 38.05 43.2 10.81 43.21 1.58 24.82.26 18.7c-1.31-6.13 5.28-4.81 6.16-.87.87 3.94 9.66 19.7 30.75 15.32C58.27 28.76 95.87.08 95.87.08z"/><linearGradient id="u" x1="63.67%" x2="11.228%" y1="17.98%" y2="63.931%"><stop stop-color="#85E0FF" offset="0%"/><stop stop-color="#FFF" offset="100%"/></linearGradient><path id="w" d="M1.46 24.4S15.13 9.74 20.84 10.62c5.71.87-10.82 40.76-7.36 57.84 3.46 17.08 16.95 28.2 42.66 26.22 2.7-.36 2.34-5.61-.2-5.48-2.54.13-17.56-.3-24.59-13.44-7.03-13.14 9.9-60.37 6.63-69.08-3.27-8.72-15-8.99-28.61 1.08C-4.26 17.83 1.46 24.4 1.46 24.4z"/><linearGradient id="x" x1="62.51%" x2="20.92%" y1="35.466%" y2="74.333%"><stop stop-color="#85E0FF" offset="0%"/><stop stop-color="#FFF" offset="100%"/></linearGradient><path id="z" d="M32.75 39.84c-1.12 5.43-8.25 12.28-13.09 12.28-4.83 0 8.65-41.81 9.97-44.88 1.32-3.06 2.2-5.69-1.32-6.56-3.51-.88-5.8-.88-10.2 0-4.39.87-8.45 1.99-16.8 40.52-3.48 16.07.35 22.79 7.46 25.67 9.93 4.03 18.18-7.89 23.47-14.63 5.28-6.74 1.63-17.83.51-12.4z"/><linearGradient id="A" x1="63.205%" x2="11.886%" y1="45.269%" y2="45.269%"><stop stop-color="#85E0FF" offset="0%"/><stop stop-color="#FFF" offset="100%"/></linearGradient></defs><g fill="none" fill-rule="evenodd"><g transform="rotate(-5 581.77 51.462)"><mask id="c" fill="#fff"><use xlink:href="#a"/></mask><use fill="#FFF" xlink:href="#a"/><path fill="url(#b)" d="M36.18-3.25h32.51v25.4H36.18z" opacity=".8" mask="url(#c)" transform="rotate(26 52.434 9.443)"/></g><g transform="rotate(3 -731.054 648.368)"><mask id="f" fill="#fff"><use xlink:href="#d"/></mask><use fill="#FFF" xlink:href="#d"/><path fill="url(#e)" d="M20.95 80.18l30.58-2.4v25.39l-21.94 6.02z" opacity=".8" mask="url(#f)" transform="rotate(20 36.24 93.483)"/></g><g transform="rotate(3 -748.66 1363.356)"><mask id="i" fill="#fff"><use xlink:href="#g"/></mask><use fill="#FFF" xlink:href="#g"/><path fill="url(#h)" d="M20.86 77.25h32.52v25.4H20.86z" opacity=".8" mask="url(#i)"/></g><g transform="rotate(3 -736.04 2049.7)"><mask id="l" fill="#fff"><use xlink:href="#j"/></mask><use fill="#FFF" xlink:href="#j"/><path fill="url(#k)" d="M22 75.36l25.36-1.33v25.4H14.84z" opacity=".8" mask="url(#l)"/></g><g transform="rotate(3 -1291.524 2607.027)"><mask id="o" fill="#fff"><use xlink:href="#m"/></mask><use fill="#FFF" xlink:href="#m"/><path fill="url(#n)" d="M13.11 46.91l30.58-2.4v25.4l-21.94 6.01z" opacity=".8" mask="url(#o)" transform="rotate(30 28.402 60.216)"/><path fill="url(#p)" d="M25.3-1.1l30.58-2.4v25.39l-21.94 6.02z" opacity=".8" mask="url(#o)" transform="rotate(20 40.588 12.203)"/></g><g transform="rotate(3 -2175.864 4566.119)"><mask id="s" fill="#fff"><use xlink:href="#q"/></mask><use fill="#FFF" xlink:href="#q"/><path fill="url(#r)" d="M-6.83 14.3L10.95-5.92l13.3 15.35-14.38 21.7-10.13-9.77z" opacity=".5" mask="url(#s)" transform="rotate(-157 8.712 12.598)"/></g><g transform="rotate(3 -2439.118 2549.311)"><mask id="v" fill="#fff"><use xlink:href="#t"/></mask><use fill="#FFF" xlink:href="#t"/><path fill="url(#u)" d="M88.13-1.08l21.63-6.33L92.1 40.62 84.28 26.8 77.4 16.45z" opacity=".5" mask="url(#v)" transform="rotate(16 93.581 16.604)"/></g><g transform="rotate(3 -1203.933 4081.114)"><mask id="y" fill="#fff"><use xlink:href="#w"/></mask><use fill="#FFF" xlink:href="#w"/><path fill="url(#x)" d="M-7.18-2.02l30.57-2.4v25.4L1.46 26.98z" opacity=".8" mask="url(#y)" transform="rotate(-165 8.105 11.287)"/></g><g transform="rotate(3 -1310.218 3182.984)"><mask id="B" fill="#fff"><use xlink:href="#z"/></mask><use fill="#FFF" xlink:href="#z"/><path fill="url(#A)" d="M20.39 46.18l21.13-8.12-8.25 27.17-17.23 7.04z" opacity=".8" mask="url(#B)"/></g><path fill="#FFF" d="M206.14 136.23c5.77-22.22 24.23-87.63 24.96-90.75.79-3.38-.98-5.66-4.45-6.72-3.46-1.06-9.05-1.86-13.15 6.68-4.09 8.53-23.24 84.18-23.24 91.24 0 1.96 2.83 3.47 7.13 3.35 4.29-.12 8.4-2.44 8.75-3.8zM112.85 64.95c2.14.99 5.52 3.8 17.37 4.42 11.84.62 19.07-2.95 26.78-7.37 7.71-4.42 19.3-7.32 23.16-5.36 3.86 1.96.4 9.23 4.65 12.08 4.25 2.86 12.26 1.08 13.85-4.1 1.6-5.17-.35-10.1-7.2-13.53-6.87-3.42-19.27-1.88-30.54 3.23-11.26 5.1-13.66 8.93-26.39 8.26-12.72-.67-19.17-3.64-19.17-3.64s-2.17-.55-3.14 1.15c-.97 1.7-1.52 3.87.63 4.86zM28 22V5.2h-6.36V.64h18.42V5.2H33.7V22H28zM59 .64h5.52V22H59v-8.64h-8.64V22h-5.52V.64h5.52v8.31H59V.64zM70.86 22V.64h5.64V22h-5.64zm14.98-.36a11.4 11.4 0 0 1-3.81-1.71l1.77-3.99c1.04.66 2.14 1.16 3.31 1.51 1.17.36 2.35.53 3.53.53 1.2 0 2.12-.16 2.76-.5.64-.33.96-.79.96-1.39 0-.54-.29-.98-.87-1.33-.58-.36-1.67-.7-3.27-1.04-2.02-.4-3.59-.9-4.71-1.49a5.56 5.56 0 0 1-2.36-2.08 5.85 5.85 0 0 1-.67-2.91c0-1.3.37-2.47 1.11-3.53a7.31 7.31 0 0 1 3.12-2.46C88.05.66 89.58.37 91.3.37c1.54 0 3.03.21 4.48.64 1.45.44 2.59 1 3.41 1.7L97.45 6.7a11.58 11.58 0 0 0-2.97-1.52 9.73 9.73 0 0 0-3.12-.52c-1.02 0-1.84.2-2.46.58-.62.4-.93.92-.93 1.58 0 .36.11.66.33.9.22.24.63.47 1.23.7.6.24 1.5.48 2.7.74 1.94.42 3.46.92 4.57 1.52a5.73 5.73 0 0 1 2.36 2.06c.46.8.69 1.74.69 2.84 0 2.08-.81 3.71-2.43 4.9-1.62 1.2-3.9 1.79-6.84 1.79-1.6 0-3.18-.21-4.74-.63zm57.2-21h5.34L140.73 22h-4.47l-4.47-12.69L127.23 22h-4.47L115.14.64h5.73l4.38 13.47L130.02.64h3.84l4.59 13.71L143.04.64zM153.16 22V.64h15.24v4.32h-9.75v4.02h9.12v4.32h-9.12v4.38h9.75V22h-15.24zm20.62 0V.64h15.24v4.32h-9.75v4.02h9.12v4.32h-9.12v4.38h9.75V22h-15.24zm41.5 0h-6.69l-8.55-9.69V22h-5.64V.64h5.64v9.18l8.31-9.18h6.6l-9.45 10.14L215.28 22zm14 0V.64h5.64V22h-5.64zM255.06.64h5.31V22h-4.17l-9.69-12.12V22h-5.25V.64h4.11l9.69 12.06V.64z"/></g></svg>